<?xml version="1.0" encoding="UTF-8" standalone="no"?>
<svg width="24px" height="24px" viewBox="0 0 24 24" version="1.1" xmlns="http://www.w3.org/2000/svg" xmlns:xlink="http://www.w3.org/1999/xlink">
    <!-- Generator: Sketch 3.6.1 (26313) - http://www.bohemiancoding.com/sketch -->
    <title>bold</title>
    <desc>Created with Sketch.</desc>
    <defs></defs>
    <g id="Iconography" stroke="none" stroke-width="1" fill-rule="evenodd">
        <g id="New-Icons---Gold-Release" transform="translate(-264.000000, -216.000000)">
            <g id="bold" transform="translate(264.000000, 216.000000)">
                <g id="Group">
                    <g id="Frame_-_24px" fill="none" >
                        <rect id="Rectangle-path" x="0" y="0" width="24" height="24"></rect>
                    </g>
                    <g id="Line_Icons" transform="translate(4.000000, 2.000000)">
                        <path d="M12.507,8.556 C13.427,7.649 14,6.391 14,5 C14,2.243 11.757,0 9,0 L0,0 L0,2 L2,2 L2,18 L0,18 L0,20 L10,20 C13.309,20 16,17.309 16,14 C16,11.587 14.565,9.508 12.507,8.556 L12.507,8.556 Z M9,2 C10.654,2 12,3.346 12,5 C12,6.654 10.654,8 9,8 L4,8 L4,2 L9,2 L9,2 Z M10,18 L4,18 L4,10 L10,10 C12.206,10 14,11.794 14,14 C14,16.206 12.206,18 10,18 L10,18 Z" id="Shape"></path>
                    </g>
                </g>
            </g>
        </g>
    </g>
</svg>