<?xml version="1.0" encoding="UTF-8" standalone="no"?>
<svg width="20px" height="21px" viewBox="0 0 20 21" version="1.1" xmlns="http://www.w3.org/2000/svg" xmlns:xlink="http://www.w3.org/1999/xlink">
    <!-- Generator: Sketch 3.8.3 (29802) - http://www.bohemiancoding.com/sketch -->
    <title>navigation filter image</title>
    <desc>Created with Sketch.</desc>
    <defs></defs>
    <g id="Iconography" stroke="none" stroke-width="1" fill="none" fill-rule="evenodd">
        <g id="New-Icons---Gold-Release" transform="translate(-554.000000, -169.000000)">
            <g id="navigation-filter-image" transform="translate(552.000000, 168.000000)">
                <g id="Group">
                    <g id="Frame_-_24px">
                        <rect id="Rectangle-path" x="0" y="0.0018432" width="24" height="22.1184"></rect>
                    </g>
                    <g id="Line_Icons" transform="translate(1.000000, 1.920000)" fill="#000000">
                        <g id="Group" transform="translate(0.500000, 0.000000)">
                            <path d="M19.25,20.0496875 L1.75,20.0496875 C1.05875,20.0496875 0.5,19.4896875 0.5,18.7996875 L0.5,1.2996875 C0.5,0.6096875 1.05875,0.0496875 1.75,0.0496875 L19.25,0.0496875 C19.94125,0.0496875 20.5,0.6096875 20.5,1.2996875 L20.5,18.7996875 C20.5,19.4896875 19.94125,20.0496875 19.25,20.0496875 L19.25,20.0496875 Z M2.5,18.0496875 L18.5,18.0496875 L18.5,2.0496875 L2.5,2.0496875 L2.5,18.0496875 L2.5,18.0496875 Z" id="Shape"></path>
                            <polygon id="Shape" points="13.2985474 7.68808105 9.68978481 13.1012249 7.72086182 10.4769238 3.53759766 16.0546094 17.4818115 16.0546094"></polygon>
                            <circle id="Oval" cx="6.52984619" cy="6.12106445" r="2"></circle>
                        </g>
                    </g>
                </g>
            </g>
        </g>
    </g>
</svg>