<?xml version="1.0" encoding="UTF-8" standalone="no"?>
<svg width="19px" height="20px" viewBox="0 0 19 20" version="1.1" xmlns="http://www.w3.org/2000/svg" xmlns:xlink="http://www.w3.org/1999/xlink">
    <!-- Generator: Sketch 3.6.1 (26313) - http://www.bohemiancoding.com/sketch -->
    <title>list-number</title>
    <desc>Created with Sketch.</desc>
    <defs></defs>
    <g id="Iconography" stroke="none" stroke-width="1" fill="none" fill-rule="evenodd">
        <g id="New-Icons---Gold-Release" transform="translate(-507.000000, -218.000000)">
            <g id="list-number" transform="translate(504.000000, 216.000000)">
                <g id="Group">
                    <g id="Frame_-_24px">
                        <rect id="Rectangle-path" x="0" y="0" width="24" height="24"></rect>
                    </g>
                    <g id="Line_Icons" transform="translate(3.000000, 2.000000)" fill="#000000">
                        <g id="Group">
                            <rect id="Rectangle-path" x="5" y="2" width="14" height="2"></rect>
                            <rect id="Rectangle-path" x="5" y="9" width="14" height="2"></rect>
                            <rect id="Rectangle-path" x="5" y="16" width="14" height="2"></rect>
                            <path d="M1.32,1.869 L1.32,5.47 L2.414,5.47 L2.414,0.548 C2.414,0.327 2.28,0.127 2.076,0.042 C1.871,-0.044 1.637,0.004 1.48,0.161 L4.4408921e-16,1.642 L0.773,2.415 L1.32,1.869 L1.32,1.869 Z" id="Shape"></path>
                            <path d="M1.5,7 C0.673,7 0,7.673 0,8.5 L0,9 L1,9 L1,8.5 C1,8.224 1.225,8 1.5,8 C1.776,8 2.001,8.224 2.001,8.5 C2.001,8.989 1.038,10.254 0.147,11.146 C0.004,11.289 -0.039,11.503 0.039,11.691 C0.116,11.879 0.298,12 0.5,12 L3,12 L3,11 L1.638,11 C2.261,10.266 3,9.238 3,8.5 C3,7.673 2.328,7 1.5,7 L1.5,7 Z" id="Shape"></path>
                            <path d="M1.5,14.442 L0,14.443 L0.001,15.443 L1.5,15.442 C1.775,15.442 2,15.666 2,15.942 C2,16.218 1.775,16.442 1.5,16.442 L1.5,16.442 L1,16.442 L1,17.442 L1.5,17.442 L1.5,17.442 C1.775,17.442 2,17.666 2,17.942 C2,18.219 1.775,18.442 1.5,18.442 L0,18.442 L0.001,19.442 L1.5,19.442 C2.327,19.442 3,18.769 3,17.942 C3,17.558 2.855,17.207 2.617,16.942 C2.855,16.677 3,16.327 3,15.942 C3,15.115 2.327,14.442 1.5,14.442 L1.5,14.442 Z" id="Shape"></path>
                        </g>
                    </g>
                </g>
            </g>
        </g>
    </g>
</svg>