<?xml version="1.0" encoding="UTF-8" standalone="no"?>
<svg width="22px" height="24px" viewBox="0 0 22 24" version="1.1" xmlns="http://www.w3.org/2000/svg" xmlns:xlink="http://www.w3.org/1999/xlink">
    <g id="Group">
        <path d="M6.707,15.707 L5.293,14.292 L0.586,19 L5.293,23.707 L6.707,22.292 L4.414,20 L22,20 L22,18 L4.414,18 L6.707,15.707 Z" id="Shape"></path>
        <path d="M11,0 C8.243,0 6,2.243 6,5 C6,7.757 8.243,10 11,10 L13,10 L13,16 L15,16 L15,2 L17,2 L17,16 L19,16 L19,2 L22,2 L22,0 L11,0 L11,0 Z M13,8 L11,8 C9.346,8 8,6.654 8,5 C8,3.346 9.346,2 11,2 L13,2 L13,8 L13,8 Z" id="Shape"></path>
    </g>
</svg>