<?xml version="1.0" encoding="UTF-8" standalone="no"?>
<svg width="22px" height="24px" viewBox="0 0 22 24" version="1.1" xmlns="http://www.w3.org/2000/svg" xmlns:xlink="http://www.w3.org/1999/xlink">
    <g id="Group">
        <path d="M16.707,14.293 L15.293,15.707 L17.586,18 L0,18 L0,20 L17.586,20 L15.293,22.293 L16.707,23.707 L21.414,19 L16.707,14.293 Z" id="Shape"></path>
        <path d="M5,10 L7,10 L7,16 L9,16 L9,2 L11,2 L11,16 L13,16 L13,2 L16,2 L16,0 L5,0 C2.243,0 0,2.243 0,5 C0,7.757 2.243,10 5,10 L5,10 Z M5,2 L7,2 L7,8 L5,8 C3.346,8 2,6.654 2,5 C2,3.346 3.346,2 5,2 L5,2 Z" id="Shape"></path>
    </g>
</svg>