<?xml version="1.0" encoding="UTF-8" standalone="no"?>
<svg width="20px" height="23px" viewBox="0 0 20 23" version="1.1" xmlns="http://www.w3.org/2000/svg" xmlns:xlink="http://www.w3.org/1999/xlink">
    <!-- Generator: Sketch 3.6.1 (26313) - http://www.bohemiancoding.com/sketch -->
    <title>printer</title>
    <desc>Created with Sketch.</desc>
    <defs></defs>
    <g id="Iconography" stroke="none" stroke-width="1" >
        <g id="New-Icons---Gold-Release" transform="translate(-1178.000000, -217.000000)">
            <g id="printer" transform="translate(1176.000000, 216.000000)">
                <g id="Group">
                    <g id="Line_Icons" transform="translate(2.000000, 1.000000)">
                        <g id="Group">
                            <path d="M20,10 C20,8.346 18.654,7 17,7 L15,7 L15,9 L5,9 L5,7 L3,7 C1.346,7 0,8.346 0,10 L0,19 L3,19 L3,23 L17,23 L17,19 L20,19 L20,10 L20,10 Z M15,21 L5,21 L5,17 L15,17 L15,21 L15,21 Z M18,17 L17,17 L17,15 L3,15 L3,17 L2,17 L2,10 C2,9.448 2.449,9 3,9 L3,11 L17,11 L17,9 C17.551,9 18,9.448 18,10 L18,17 L18,17 Z" id="Shape"></path>
                            <path d="M5,2 L15,2 L15,6 L17,6 L17,0 L3,0 L3,6 L5,6 L5,2 Z" id="Shape"></path>
                            <circle id="Oval" cx="15" cy="13" r="1"></circle>
                        </g>
                    </g>
                </g>
            </g>
        </g>
    </g>
</svg>