<?xml version="1.0" encoding="UTF-8" standalone="no"?>
<svg width="23px" height="20px" viewBox="0 0 23 20" version="1.1" xmlns="http://www.w3.org/2000/svg" xmlns:xlink="http://www.w3.org/1999/xlink">
    <!-- Generator: Sketch 3.6.1 (26313) - http://www.bohemiancoding.com/sketch -->
    <title>redo</title>
    <desc>Created with Sketch.</desc>
    <defs></defs>
    <g id="Iconography" stroke="none" stroke-width="1" fill="none" fill-rule="evenodd">
        <g id="New-Icons---Gold-Release" transform="translate(-841.000000, -218.000000)">
            <g id="redo" transform="translate(840.000000, 216.000000)">
                <g id="Group">
                    <g id="Frame_-_24px">
                        <rect id="Rectangle-path" x="0" y="0" width="24" height="24"></rect>
                    </g>
                    <g id="Filled_Icons" transform="translate(1.000000, 2.000000)" fill="#000000">
                        <path d="M21.134,4.305 L19.553,7.042 C18.289,2.969 14.485,0 10,0 C4.486,0 0,4.486 0,10 C0,15.515 4.486,20 10,20 L10,18 C5.589,18 2,14.411 2,10 C2,5.589 5.589,2 10,2 C13.769,2 16.929,4.623 17.772,8.136 L14.304,6.134 L13.304,7.867 L19.366,11.367 L22.866,5.305 L21.134,4.305 L21.134,4.305 Z" id="Shape"></path>
                    </g>
                </g>
            </g>
        </g>
    </g>
</svg>