<?xml version="1.0" encoding="UTF-8" standalone="no"?>
<svg width="18px" height="18px" viewBox="0 0 18 18" version="1.1" xmlns="http://www.w3.org/2000/svg" xmlns:xlink="http://www.w3.org/1999/xlink">
    <!-- Generator: Sketch 3.6.1 (26313) - http://www.bohemiancoding.com/sketch -->
    <title>strike through</title>
    <desc>Created with Sketch.</desc>
    <defs></defs>
    <g id="Iconography" stroke="none" stroke-width="1" fill="none" fill-rule="evenodd">
        <g id="New-Icons---Gold-Release" transform="translate(-411.000000, -219.000000)">
            <g id="strike-through" transform="translate(408.000000, 216.000000)">
                <g id="Group">
                    <g id="Frame_-_24px">
                        <rect id="Rectangle-path" x="0" y="0" width="24" height="24"></rect>
                    </g>
                    <g id="Line_Icons" transform="translate(3.000000, 3.000000)" fill="#000000">
                        <g id="Group">
                            <path d="M18,8 L0,8 L0,10 L9,10 C10.654,10 12,11.346 12,13 C12,14.654 10.654,16 9,16 L6,16 L6,15 L4,15 L4,17 C4,17.552 4.448,18 5,18 L9,18 C11.757,18 14,15.757 14,13 C14,11.87 13.609,10.838 12.975,10 L18,10 L18,8 L18,8 Z" id="Shape"></path>
                            <path d="M6.185,6 C6.072,5.686 6,5.352 6,5 C6,3.346 7.346,2 9,2 L11,2 L11,3 L13,3 L13,1 C13,0.448 12.552,0 12,0 L9,0 C6.243,0 4,2.243 4,5 C4,5.342 4.035,5.677 4.101,6 L6.185,6 L6.185,6 Z" id="Shape"></path>
                        </g>
                    </g>
                </g>
            </g>
        </g>
    </g>
</svg>