<?xml version="1.0" encoding="UTF-8" standalone="no"?>
<svg width="24px" height="24px" viewBox="0 0 24 24" version="1.1" xmlns="http://www.w3.org/2000/svg" xmlns:xlink="http://www.w3.org/1999/xlink">
    <!-- Generator: Sketch 3.6.1 (26313) - http://www.bohemiancoding.com/sketch -->
    <title>underline</title>
    <desc>Created with Sketch.</desc>
    <defs></defs>
    <g id="Iconography" stroke="none" stroke-width="1" fill-rule="evenodd">
        <g id="New-Icons---Gold-Release" transform="translate(-360.000000, -216.000000)">
            <g id="underline" transform="translate(360.000000, 216.000000)">
                <g id="Group">
                    <g id="Frame_-_24px" fill="none" >
                        <rect id="Rectangle-path" x="0" y="0" width="24" height="24"></rect>
                    </g>
                    <g id="Filled_Icons" transform="translate(4.000000, 2.000000)">
                        <g id="Group">
                            <rect id="Rectangle-path" x="0" y="18" width="16" height="2"></rect>
                            <path d="M10,0 L10,2 L12,2 L12,10 C12,12.206 10.206,14 8,14 C5.794,14 4,12.206 4,10 L4,2 L6,2 L6,0 L0,0 L0,2 L2,2 L2,10 C2,13.309 4.691,16 8,16 C11.309,16 14,13.309 14,10 L14,2 L16,2 L16,0 L10,0 L10,0 Z" id="Shape"></path>
                        </g>
                    </g>
                </g>
            </g>
        </g>
    </g>
</svg>