<?xml version="1.0" encoding="UTF-8" standalone="no"?>
<svg width="23px" height="20px" viewBox="0 0 23 20" version="1.1" xmlns="http://www.w3.org/2000/svg" xmlns:xlink="http://www.w3.org/1999/xlink">
    <!-- Generator: Sketch 3.6.1 (26313) - http://www.bohemiancoding.com/sketch -->
    <title>undo</title>
    <desc>Created with Sketch.</desc>
    <defs></defs>
    <g id="Iconography" stroke="none" stroke-width="1" fill="none" fill-rule="evenodd">
        <g id="New-Icons---Gold-Release" transform="translate(-792.000000, -218.000000)">
            <g id="undo" transform="translate(792.000000, 216.000000)">
                <g id="Group">
                    <g id="Frame_-_24px">
                        <rect id="Rectangle-path" x="0" y="0" width="24" height="24"></rect>
                    </g>
                    <g id="Line_Icons" transform="translate(0.000000, 2.000000)" fill="#000000">
                        <path d="M13,0 C8.515,0 4.711,2.969 3.447,7.042 L1.866,4.305 L0.134,5.305 L3.634,11.367 L9.697,7.867 L8.697,6.134 L5.229,8.136 C6.071,4.623 9.231,2 13,2 C17.411,2 21,5.589 21,10 C21,14.411 17.411,18 13,18 L13,20 C18.514,20 23,15.515 23,10 C23,4.486 18.514,0 13,0 L13,0 Z" id="Shape"></path>
                    </g>
                </g>
            </g>
        </g>
    </g>
</svg>